<?xml version="1.0" encoding="UTF-8"?>
<svg xmlns="http://www.w3.org/2000/svg" xmlns:xlink="http://www.w3.org/1999/xlink" version="1.1" id="Layer_1" x="0px" y="0px" viewBox="0 0 424 218" style="enable-background:new 0 0 424 218;" xml:space="preserve">
<style type="text/css">
	.st0{fill:#FFFFFF;}
	.st1{fill:#F1AE1D;}
	.st2{fill:#FFFFFF;}
</style>
<g>
	<g>
		<path class="st1" d="M59.17,149.28c14.56,27.33,42.62,44.24,73.64,44.24c31.02,0,59.09-16.91,73.65-44.24h-27.46    c-11.55,13.6-28.36,21.38-46.18,21.38c-17.82,0-34.63-7.78-46.18-21.38H59.17z M132.8,195.48c-32.29,0-61.47-17.91-76.14-46.74    l-0.73-1.43h31.61l0.3,0.35c11.18,13.37,27.57,21.04,44.96,21.04c17.41,0,33.79-7.67,44.96-21.04l0.3-0.35h31.62l-0.73,1.43    C194.28,177.57,165.1,195.48,132.8,195.48"></path>
		<path class="st1" d="M178.99,70.91h27.46c-14.56-27.33-42.62-44.24-73.64-44.24c-31.01,0-59.08,16.91-73.64,44.24h27.46    c11.55-13.59,28.36-21.38,46.18-21.38C150.63,49.53,167.43,57.32,178.99,70.91 M209.68,72.88h-31.61l-0.29-0.35    C166.59,59.16,150.21,51.5,132.8,51.5c-17.39,0-33.78,7.66-44.96,21.03l-0.3,0.35H55.94l0.73-1.43    c14.67-28.84,43.84-46.74,76.14-46.74c32.3,0,61.48,17.9,76.14,46.74L209.68,72.88z"></path>
		<path class="st1" d="M111.49,72.88l-2.79-7.82l6.12,7.82h6.67l-1.12-12.45l5.44,12.45h4.73l2.27-14.02l2.28,14.02h4.72l5.44-12.45    l-1.12,12.45h6.67l6.12-7.82l-2.79,7.82h18.78c-10.02-10.73-24.25-17.48-40.1-17.48c-15.84,0-30.07,6.74-40.09,17.48H111.49z"></path>
		<path class="st1" d="M153.99,147.32l2.92,8.22l-6.43-8.22h-6.4l1.16,12.83l-5.61-12.83h-4.49l-2.34,14.41l-2.34-14.41h-4.49    l-5.61,12.83l1.16-12.83h-6.39l-6.43,8.22l2.92-8.22H92.35c10.04,10.96,24.42,17.88,40.45,17.88c16.03,0,30.42-6.92,40.46-17.88    H153.99z"></path>
		<path class="st0" d="M76.27,60.35l2.37,2.22l0.9-0.95c0.86-0.92,1.2-1.68,0.23-2.59c-0.75-0.7-1.59-0.71-2.26,0.01L76.27,60.35z     M80.92,62.72l-0.99,1.07l3,2.81l-1.4,1.48l-7.93-7.45l2.81-2.98c1.48-1.58,3.44-1.49,4.84-0.17c1.07,1.01,1.4,2.31,0.79,3.56    l5.01,1.19l-1.51,1.6L80.92,62.72z"></path>
		<polygon class="st0" points="88.2,52.29 91.37,58.77 89.46,60.21 80.76,53.04 82.71,51.56 88.66,56.78 88.67,56.77 85.04,49.7     86.74,48.42 92.7,53.71 92.73,53.7 89.19,46.66 91.03,45.25 95.64,55.54 93.7,57 88.23,52.26   "></polygon>
		<path class="st0" d="M98.78,48.79l2.36-1.22l-3.24-3.37l-0.04,0.01L98.78,48.79z M106.05,49.7l-1.99,1.04l-1.85-1.92l-3.03,1.57    L99.74,53l-1.99,1.03l-2.2-11.22l2.54-1.33L106.05,49.7z"></path>
		<polygon class="st0" points="107.65,49.08 104.16,38.76 106.09,38.11 112.12,43.82 112.16,43.81 109.82,36.85 111.68,36.23     115.16,46.55 113.21,47.2 107.27,41.77 107.24,41.78 109.5,48.45   "></polygon>
		<path class="st0" d="M120.66,43.62c2.14-0.36,2.15-2.35,1.86-4.05c-0.29-1.69-0.97-3.57-3.1-3.21l-1.55,0.27l1.25,7.25    L120.66,43.62z M117.42,45.96l-1.84-10.72l3.79-0.65c3.55-0.61,4.8,1.94,5.26,4.62c0.46,2.68,0.13,5.49-3.42,6.1L117.42,45.96z"></path>
		<path class="st0" d="M129.85,40.2l2.65-0.06l-1.4-4.46h-0.03L129.85,40.2z M135.98,44.23l-2.24,0.05l-0.81-2.54l-3.4,0.07    l-0.67,2.58l-2.24,0.05l2.99-11.03l2.87-0.06L135.98,44.23z"></path>
		<path class="st0" d="M144.65,40.63c-1.5-0.77-2.64-2.05-2.33-3.84c0.35-2.01,2.11-2.69,4.17-2.32c0.92,0.17,1.94,0.43,2.97,0.87    l-0.25,1.45l-2.99-0.53c-1.15-0.21-1.66,0.17-1.78,0.83c-0.17,0.96,0.78,1.55,1.95,2.12c1.62,0.75,2.71,1.85,2.38,3.7    c-0.36,2.02-2.13,2.96-4.29,2.57c-0.93-0.17-2.5-0.52-3.52-0.96l0.26-1.44l3.52,0.62c1.17,0.21,1.79-0.29,1.92-1.04    C146.82,41.64,145.77,41.2,144.65,40.63"></path>
		<path class="st0" d="M157.91,43.31c0.54-1.63,0.96-3.67-0.88-4.3c-1.87-0.62-2.75,1.27-3.3,2.89c-0.55,1.64-0.98,3.69,0.89,4.32    C156.47,46.84,157.35,44.95,157.91,43.31 M151.73,41.24c0.86-2.58,2.46-5.09,5.87-3.94c3.42,1.14,3.19,4.11,2.32,6.68    c-0.86,2.58-2.46,5.08-5.88,3.94C150.62,46.77,150.87,43.82,151.73,41.24"></path>
		<path class="st0" d="M169,42.15c0.73,0.39,1.7,0.97,2.55,1.69l-0.67,1.31l-2.42-1.24c-1.99-1.02-3.27,0.67-4.05,2.18    c-0.79,1.54-1.41,3.56,0.59,4.58l2.42,1.24l-0.67,1.3c-1.08-0.27-2.14-0.72-2.86-1.09c-3.21-1.64-2.61-4.58-1.37-6.99    C163.77,42.72,165.79,40.51,169,42.15"></path>
		
			<rect x="166.82" y="49.56" transform="matrix(0.5465 -0.8374 0.8374 0.5465 35.7675 167.1929)" class="st0" width="10.89" height="2.03"></rect>
		<path class="st0" d="M176.93,55.49l2.05,1.69l1.83-4.29l-0.02-0.02L176.93,55.49z M178.94,62.54l-1.74-1.43l1.05-2.46l-2.63-2.17    L173.43,58l-1.73-1.42l9.47-6.41l2.22,1.82L178.94,62.54z"></path>
		<polygon class="st0" points="189.53,57.96 182.8,64.14 185.81,67.42 184.51,68.6 180.13,63.83 188.16,56.46   "></polygon>
		<path class="st0" d="M77.87,158.96c-0.72-1.54-0.85-3.24,0.5-4.47c1.51-1.36,3.31-0.83,4.72,0.71c0.64,0.71,1.27,1.53,1.82,2.5    l-1.08,0.99l-2.05-2.26c-0.79-0.86-1.42-0.87-1.92-0.42c-0.72,0.66-0.33,1.71,0.24,2.87c0.82,1.59,1.03,3.12-0.38,4.39    c-1.52,1.38-3.49,1.03-4.97-0.6c-0.64-0.69-1.64-1.93-2.19-2.91l1.07-0.99l2.4,2.65c0.81,0.89,1.6,0.87,2.16,0.35    C78.97,161.09,78.4,160.09,77.87,158.96"></path>
		<polygon class="st0" points="90.85,165.06 87.27,162.02 85.53,164.07 88.53,166.61 87.39,167.95 84.39,165.41 82.51,167.63     86.09,170.67 84.95,172.01 79.81,167.66 86.86,159.36 91.98,163.71   "></polygon>
		<path class="st0" d="M97.06,166.92c0.68,0.45,1.59,1.12,2.37,1.94l-0.8,1.24l-2.29-1.48c-1.88-1.21-3.33,0.34-4.26,1.77    c-0.93,1.45-1.76,3.4,0.13,4.62l2.29,1.47l-0.79,1.22c-1.06-0.38-2.06-0.91-2.74-1.37c-3.03-1.95-2.14-4.81-0.66-7.1    C91.8,166.96,94.04,164.97,97.06,166.92"></path>
		<path class="st0" d="M105.24,179.26c-1.16,2.53-3.07,3-5.19,2.01c-2.13-0.99-3.05-2.75-1.88-5.28l2.95-6.39l1.84,0.85l-2.95,6.39    c-0.46,1-0.63,2.14,0.79,2.8c1.34,0.62,2.14-0.23,2.6-1.24l2.96-6.4l1.84,0.85L105.24,179.26z"></path>
		<path class="st0" d="M111.61,175.85l-0.92,3.12l1.25,0.37c1.22,0.36,2.04,0.32,2.42-0.95c0.29-0.98-0.09-1.75-1.02-2.03    L111.61,175.85z M111.59,181.07l-1.4-0.41l-1.16,3.95l-1.95-0.58l3.08-10.44l3.92,1.16c2.08,0.6,2.89,2.4,2.33,4.24    c-0.42,1.41-1.43,2.3-2.81,2.3l1.19,5.02l-2.11-0.62L111.59,181.07z"></path>
		
			<rect x="114" y="180.59" transform="matrix(0.1821 -0.9833 0.9833 0.1821 -80.8632 265.9913)" class="st0" width="10.89" height="2.03"></rect>
		<polygon class="st0" points="127.82,178.97 127.03,188.07 125,187.89 125.79,178.8 123,178.55 123.15,176.8 130.76,177.46     130.61,179.21   "></polygon>
		<polygon class="st0" points="136.38,182.13 138.24,177.2 140.44,177.1 137.43,184.39 137.61,188.13 135.57,188.22 135.4,184.49     131.73,177.52 134.04,177.41 136.34,182.13   "></polygon>
		<path class="st0" d="M151.56,184.19c0.82-0.2,1.24-0.8,1.01-1.74c-0.25-0.98-0.88-1.28-1.71-1.08l-2.07,0.51l0.7,2.83    L151.56,184.19z M147.73,177.55l0.64,2.61l1.82-0.45c0.78-0.19,1.2-0.74,1-1.61c-0.21-0.84-0.86-1.19-1.64-1L147.73,177.55z     M152.26,180.07c1.41,0.03,2.14,0.97,2.42,2.08c0.46,1.86-0.48,3.2-2.5,3.7l-4.24,1.05l-2.61-10.58l3.95-0.97    c2.01-0.5,3.47,0.29,3.89,2c0.25,1.01,0.09,2.04-0.92,2.67L152.26,180.07z"></path>
		<path class="st0" d="M162.36,176.61c-0.65-1.59-1.66-3.43-3.46-2.69c-1.83,0.75-1.26,2.77-0.61,4.36c0.66,1.6,1.67,3.44,3.49,2.69    C163.58,180.23,163.01,178.21,162.36,176.61 M156.32,179.08c-1.03-2.52-1.45-5.46,1.89-6.83c3.34-1.36,5.09,1.03,6.12,3.55    c1.03,2.52,1.46,5.46-1.88,6.83C159.12,183.99,157.35,181.59,156.32,179.08"></path>
		<path class="st0" d="M169.32,174.5l2.29-1.35l-3.41-3.19l-0.03,0.02L169.32,174.5z M176.64,175.01l-1.92,1.14l-1.96-1.82    l-2.93,1.73l0.68,2.58l-1.92,1.14l-2.82-11.08l2.46-1.46L176.64,175.01z"></path>
		<path class="st0" d="M174.95,164.82l2.05,2.52l1.02-0.82c0.98-0.8,1.43-1.5,0.59-2.54c-0.64-0.79-1.49-0.91-2.25-0.3    L174.95,164.82z M179.24,167.8l-1.13,0.92l2.59,3.2l-1.59,1.28l-6.85-8.47l3.17-2.56c1.68-1.36,3.62-1.01,4.83,0.48    c0.93,1.14,1.08,2.49,0.3,3.62l4.81,1.86l-1.71,1.38L179.24,167.8z"></path>
		<path class="st0" d="M188.65,162.27c1.47-1.59,0.27-3.17-1-4.35c-1.26-1.16-2.95-2.25-4.41-0.66l-1.06,1.16l5.4,4.99    L188.65,162.27z M187.49,166.11l-7.99-7.39l2.61-2.82c2.45-2.65,4.99-1.39,6.98,0.46c2.01,1.85,3.46,4.29,1.01,6.93L187.49,166.11    z"></path>
		<path class="st0" d="M196.37,137.34h-18.7l-5.15-5.15V97.41h10.29v29.63h13.56c3.62,0,7.48-2.05,7.48-5.86    c0-1.18-0.32-2-1.06-2.73c-1.07-1.04-3.72-2.62-10.2-3.11c-2.64,0.11-4.85-0.02-6.1-0.09c-0.23-0.01-0.4-0.02-0.51-0.02h0.05    v-10.3c0.14,0,3.58,0.09,6.77,0.09c2.01-0.12,4.2-0.44,6.07-1.14c2.71-1,4.1-2.65,4.1-4.88c0-1.86-0.61-2.68-1.07-3.15    c-2.49-2.46-8.75-2.43-11.12-2.43h-0.49c-0.97,0-4.2,0-8.52-0.01c-8.7-0.02-21.84-0.05-29.77-0.05c-3.72,0-6.46,0.82-7.12,1.11    c-2.35,1.01-3.15,3.23-2.36,6.56c0.39,1.65,2.74,2.32,8.22,3.27c3.58,0.61,7.27,1.24,10.54,2.99c4.36,2.31,6.95,6.2,7.48,11.23    c0.55,5.11-0.87,9.84-3.98,13.3c-3.16,3.5-7.87,5.53-12.94,5.53c-1.83,0-20.92,0-20.92,0s1.86-1.43,4.32-4.87    c1.78-2.47,2.46-5.43,2.46-5.43s10.02,0.01,14.12,0c2.16,0,4.09-0.76,5.3-2.11c1.17-1.31,1.65-3.11,1.41-5.34    c-0.32-2.98-1.92-3.86-9.53-5.16c-6.12-1.06-14.5-2.49-16.51-11.06c-1.91-8.16,1.35-15.36,8.31-18.36    c2.08-0.9,6.27-1.78,11.2-1.78h38.72c3.87-0.01,12.91-0.16,18.42,5.33c2.68,2.68,4.11,6.29,4.11,10.44    c0,4.26-1.69,8.03-4.71,10.85c0.51,0.39,0.99,0.8,1.45,1.25c2.72,2.66,4.16,6.15,4.16,10.09    C214.14,130.25,206.34,137.34,196.37,137.34 M108.53,137.35l-17.5,0c-6.21,0-12.72-3.97-18.35-11.2    c-3.69-4.75-7.42-11.58-7.42-16.15l5.15-5.15c0.32,0,0.67,0.01,1.06,0.01c3.08,0.03,9.49,0.09,11.96-2.36    c0.47-0.46,1.1-1.31,1.1-3.28c0-1.49-0.2-3.49-1.19-4.46c-0.82-0.82-2.44-1.23-4.81-1.23h-0.05c-2.49,0-4.31,0-6.45,0l-3.82,0    c-2.21,0-3.78,0.48-4.7,1.42c-1.07,1.09-1.58,3.07-1.52,5.89c0.03,1.17,0,32.88,0,36.51l-10.3-0.01c0,0,0.03-35.24,0.01-36.27    c-0.13-5.68,1.36-10.17,4.45-13.32c2.92-2.99,6.98-4.51,12.06-4.51h3.84c2.13,0,3.93,0.01,6.4,0h0.08c5.27,0,9.22,1.39,12.08,4.23    c2.8,2.79,4.22,6.74,4.22,11.75c0,4.24-1.44,7.91-4.15,10.59c-3.59,3.56-8.65,4.77-13.07,5.17c2.97,5.23,8.6,12.07,13.44,12.07    l17.5,0.01c2.58,0,5.81,0.01,9.7-0.01c2.15,0,4.09-0.76,5.29-2.11c1.18-1.31,1.65-3.11,1.42-5.34c-0.32-2.98-1.91-3.86-9.53-5.16    c-6.12-1.06-14.5-2.49-16.51-11.06c-1.94-8.26,1.33-15.55,8.31-18.56c2.23-0.96,5.35-1.56,8.38-1.56h20.68    c0,0-2.81,2.24-4.62,4.78c-1.81,2.54-2.24,5.46-2.24,5.46h-12.79c-2.28,0-4.21,0.29-5.32,0.77c-3.12,1.34-2.83,4.81-2.37,6.76    c0.39,1.65,2.74,2.32,8.24,3.27c3.56,0.61,7.25,1.24,10.53,2.99c4.36,2.31,6.95,6.2,7.48,11.23c0.54,5.11-0.88,9.84-3.99,13.3    c-3.15,3.5-7.87,5.53-12.93,5.53C114.35,137.35,111.12,137.35,108.53,137.35 M218.22,75.9H47.38c-4.63,0-8.38,3.76-8.38,8.38    v51.65c0,4.62,3.75,8.37,8.38,8.37h170.84c4.63,0,8.38-3.75,8.38-8.37V84.28C226.6,79.65,222.86,75.9,218.22,75.9"></path>
	</g>
	<path class="st0" d="M246.34,93.37c0-5.13,1.27-10.55,7.75-10.55c6.48,0,7.78,5.42,7.78,10.55c0,5.12-1.3,10.54-7.78,10.54   C247.61,103.91,246.34,98.48,246.34,93.37 M259.18,93.37c0-3.59-0.6-8.17-5.09-8.17c-4.46,0-5.06,4.58-5.06,8.17   c0,3.58,0.6,8.17,5.06,8.17C258.58,101.54,259.18,96.94,259.18,93.37"></path>
	<path class="st0" d="M277.25,88.55v15.06h-2.27l-0.15-1.83h-0.06c-1.23,1.54-2.87,2.13-4.75,2.13c-3.04,0-4.68-1.86-4.68-4.58   V88.55h2.42v10.63c0,1.78,1.42,2.77,3.19,2.77c1.75,0,3.89-1.24,3.89-3.53v-9.87H277.25"></path>
	<path class="st0" d="M280.87,103.61V88.55h2.27l0.14,2.52h0.07c1-1.98,3.02-2.83,4.91-2.83v2.44h-0.6c-2.71,0-4.37,1.78-4.37,3.9   v9.04H280.87"></path>
	<polyline class="st0" points="307.26,103.61 307.26,94.8 300.69,94.8 300.69,103.61 296.86,103.61 296.86,83.11 300.69,83.11    300.69,91.5 307.26,91.5 307.26,83.11 311.09,83.11 311.09,103.61 307.26,103.61  "></polyline>
	<path class="st0" d="M317.94,97.16c0.12,2.17,0.87,3.73,3.1,3.73h5.27v2.39c-2.05,0.49-3.73,0.63-5.27,0.63   c-5.06,0-6.93-3.11-6.93-7.84c0-4.73,2.2-7.83,7.29-7.83c4.07,0,5.97,2.35,5.97,4.67c0,2.13-0.9,4.25-4.46,4.25H317.94 M318,94.87   h3.77c1.45,0,1.99-0.85,1.99-1.74c0-0.98-0.87-1.87-2.41-1.87C319.21,91.25,318.21,92.76,318,94.87"></path>
	<path class="st0" d="M330.25,91.25v-2.37c2.02-0.4,4.07-0.65,5.78-0.65c3.65,0,5.73,1.03,5.73,5v10.37h-3.32l-0.3-1.71h-0.06   c-1.2,1.6-2.49,2.01-4.31,2.01c-2.86,0-4.52-1.96-4.52-4.58c0-3.62,2.56-4.62,5.09-4.62h3.79v-1.32c0-1.39-0.48-2.14-2.46-2.14   H330.25 M338.14,97.01h-2.8c-1.57,0-2.46,0.67-2.46,2.08c0,1.48,1.15,2.03,2.41,2.03c1.2,0,2.86-0.82,2.86-2.78V97.01z"></path>
	<path class="st0" d="M344.79,82.51h3.62v17.04c0,1.14,0.3,1.35,2.11,1.35v2.87c-4.92,0.29-5.73-0.76-5.73-4.22V82.51"></path>
	<path class="st0" d="M352.78,99.84v-8.5h-2.26v-2.2l2.26-0.59l1.65-4.22h1.97v4.22h3.76v2.79h-3.76v8.21c0,0.99,0.41,1.35,1.5,1.35   h2.26v2.39c-1.19,0.42-1.98,0.63-3.17,0.63C353.77,103.91,352.78,102.14,352.78,99.84"></path>
	<path class="st0" d="M362.13,103.61v-21.1h3.62v7.79h0.06c1.15-1.45,2.63-2.05,4.46-2.05c3.07,0,4.52,1.96,4.52,4.67v10.7h-3.61   v-10.4c0-1.49-1.21-2.14-2.5-2.14c-1.27,0-2.92,0.87-2.92,2.75v9.79H362.13"></path>
	<path class="st0" d="M246.34,127.15c0-5.13,1.27-10.55,7.75-10.55c6.48,0,7.78,5.42,7.78,10.55c0,5.12-1.3,10.54-7.78,10.54   C247.61,137.69,246.34,132.27,246.34,127.15 M259.18,127.15c0-3.59-0.6-8.18-5.09-8.18c-4.46,0-5.06,4.59-5.06,8.18   c0,3.58,0.6,8.15,5.06,8.15C258.58,135.3,259.18,130.73,259.18,127.15"></path>
	<path class="st0" d="M277.25,122.32v15.08h-2.27l-0.15-1.84h-0.06c-1.23,1.53-2.87,2.12-4.75,2.12c-3.04,0-4.68-1.85-4.68-4.58   v-10.79h2.42v10.64c0,1.79,1.42,2.77,3.19,2.77c1.75,0,3.89-1.23,3.89-3.53v-9.89H277.25"></path>
	<path class="st0" d="M280.87,137.4v-15.08h2.27l0.14,2.54h0.07c1-1.99,3.02-2.83,4.91-2.83v2.44h-0.6c-2.71,0-4.37,1.78-4.37,3.9   v9.04H280.87"></path>
	<polyline class="st0" points="309.52,120.21 300.69,120.21 300.69,126.18 308.38,126.18 308.38,129.5 300.69,129.5 300.69,137.4    296.86,137.4 296.86,116.9 309.52,116.9 309.52,120.21  "></polyline>
	<path class="st0" d="M324.3,122.32v15.08h-3.31l-0.31-1.71h-0.06c-1.15,1.41-2.65,2-4.46,2c-3.11,0-4.52-1.96-4.52-4.66v-10.71   h3.61v10.4c0,1.49,1.21,2.18,2.46,2.18c1.27,0,2.96-0.87,2.96-2.78v-9.8H324.3"></path>
	<path class="st0" d="M328.38,133.63v-8.5h-2.26v-2.21l2.26-0.6l1.66-4.2H332v4.2h3.76v2.81H332v8.21c0,0.98,0.42,1.35,1.5,1.35   h2.26v2.38c-1.2,0.42-1.99,0.62-3.16,0.62C329.37,137.69,328.38,135.92,328.38,133.63"></path>
	<path class="st0" d="M350.39,122.32v15.08h-3.31l-0.3-1.71h-0.07c-1.14,1.41-2.65,2-4.45,2c-3.12,0-4.52-1.96-4.52-4.66v-10.71   h3.61v10.4c0,1.49,1.21,2.18,2.47,2.18c1.27,0,2.96-0.87,2.96-2.78v-9.8H350.39"></path>
	<path class="st0" d="M353.41,137.4v-15.08h3.32l0.3,2.5h0.06c1-2.04,2.93-2.79,4.76-2.79v3.55h-0.9c-2.74,0-3.92,1.36-3.92,3.08   v8.75H353.41"></path>
	<path class="st0" d="M367.2,130.94c0.12,2.17,0.87,3.74,3.1,3.74h5.27v2.38c-2.05,0.47-3.73,0.62-5.27,0.62   c-5.06,0-6.93-3.1-6.93-7.83c0-4.73,2.2-7.83,7.3-7.83c4.06,0,5.97,2.35,5.97,4.67c0,2.15-0.91,4.25-4.46,4.25H367.2    M367.25,128.65h3.77c1.44,0,1.98-0.85,1.98-1.75c0-0.97-0.87-1.87-2.41-1.87C368.46,125.04,367.47,126.55,367.25,128.65"></path>
</g>
</svg>
